<svg width="47" height="46" viewBox="0 0 47 46" fill="none" xmlns="http://www.w3.org/2000/svg">
<g opacity="0.8">
<path d="M39.9312 15.8654C39.5176 8.96541 33.7061 3.45001 26.6991 3.45001C22.4456 3.45001 18.3269 5.49164 15.7756 8.82281C15.7168 8.79291 15.6549 8.77221 15.5954 8.74461C15.4403 8.67101 15.2828 8.60124 15.1223 8.53837C15.033 8.50388 14.9437 8.47244 14.8536 8.44177C14.6946 8.38734 14.5332 8.33904 14.3687 8.29534C14.2786 8.27157 14.1893 8.24704 14.0984 8.22711C13.9222 8.18801 13.742 8.15811 13.5603 8.13127C13.4812 8.11977 13.4036 8.10444 13.3237 8.09601C13.0637 8.06764 12.8005 8.05001 12.5333 8.05001C8.64565 8.05001 5.48333 11.145 5.48333 14.95C5.48333 15.0489 5.4896 15.1455 5.49665 15.2421C2.23798 16.9801 0 20.6226 0 24.2681C0 29.6984 4.51357 34.1167 10.0619 34.1167H14.1C14.5332 34.1167 14.8833 33.774 14.8833 33.35C14.8833 32.926 14.5332 32.5833 14.1 32.5833H10.0619C5.37758 32.5833 1.56667 28.8535 1.56667 24.2681C1.56667 21.0833 3.68558 17.7775 6.60585 16.4074L7.05 16.1997V15.7167C7.05 15.6247 7.05627 15.5311 7.06175 15.4368L7.07037 15.295L7.06018 15.1463C7.05548 15.0811 7.05 15.0159 7.05 14.95C7.05 11.9914 9.51045 9.58334 12.5333 9.58334C12.7754 9.58334 13.0143 9.60404 13.2516 9.63471C13.3127 9.64237 13.3738 9.65234 13.4342 9.66231C13.6433 9.69604 13.8493 9.74051 14.0522 9.79801C14.0796 9.80567 14.1078 9.81104 14.1353 9.81871C14.3585 9.88541 14.5763 9.96974 14.7893 10.0648C14.8449 10.0893 14.899 10.1162 14.9538 10.1422C15.1418 10.2335 15.3259 10.3331 15.5037 10.4458C17.0132 11.4026 18.0167 13.0625 18.0167 14.95C18.0167 15.374 18.3668 15.7167 18.8 15.7167C19.2332 15.7167 19.5833 15.374 19.5833 14.95C19.5833 12.8386 18.6073 10.9488 17.0767 9.68224C19.3225 6.80724 23.0206 4.98334 26.6991 4.98334C32.7661 4.98334 37.8052 9.68684 38.3308 15.6308C37.5311 15.5756 36.3318 15.5472 35.1325 15.7259C34.7048 15.7895 34.4111 16.1805 34.4761 16.5991C34.5348 16.9786 34.8685 17.2508 35.2492 17.2508C35.2884 17.2508 35.3283 17.2477 35.3675 17.2416C37.112 16.9832 38.9301 17.2255 39.0366 17.24C42.6838 17.9185 45.4333 21.2068 45.4333 24.8952C45.4333 29.1341 41.9091 32.5833 37.5781 32.5833H34.4667C34.0335 32.5833 33.6833 32.926 33.6833 33.35C33.6833 33.774 34.0335 34.1167 34.4667 34.1167H37.5781C42.7731 34.1167 47 29.9797 47 24.8952C47 20.687 44.0022 16.9127 39.9312 15.8654Z" fill="#51ae5a"/>
<path d="M29.9962 35.108L25.0667 39.9326V24.15C25.0667 23.7261 24.7165 23.3834 24.2833 23.3834C23.8502 23.3834 23.5 23.7261 23.5 24.15V39.9326L18.5705 35.108C18.2642 34.8082 17.7691 34.8082 17.4629 35.108C17.1566 35.4078 17.1566 35.8923 17.4629 36.1921L23.7287 42.3246C23.8008 42.3959 23.8878 42.4519 23.9841 42.491C24.0797 42.5301 24.1815 42.55 24.2833 42.55C24.3852 42.55 24.487 42.5301 24.5826 42.491C24.6789 42.4519 24.7659 42.3959 24.8379 42.3246L31.1038 36.1921C31.4101 35.8923 31.4101 35.4078 31.1038 35.108C30.7975 34.8082 30.3025 34.8082 29.9962 35.108Z" fill="#51ae5a"/>
</g>
</svg>
