<svg width="120" height="13" viewBox="0 0 120 13" fill="none" xmlns="http://www.w3.org/2000/svg">
<path d="M0 2.40941V0.0179818H10.7743V2.39143H6.70042V12.9281H4.05599V2.40941H0Z" fill="black"/>
<path d="M28.6063 12.9281H18.9756V0H28.4098V2.37344H21.62V4.87275H27.0876V7.21023H21.62V10.5367H28.6063V12.9281Z" fill="black"/>
<path d="M36.0751 2.40941V0.017983H46.8494V2.39143H42.7755V12.9281H40.1311V2.40941H36.0751Z" fill="black"/>
<path d="M55.0506 12.9281V0H61.0006C62.3764 0 63.4485 0.359613 64.2347 1.07884C65.0209 1.78008 65.4318 2.6971 65.4318 3.82988C65.4318 4.69295 65.1995 5.43015 64.7171 6.07745C64.2525 6.70678 63.5914 7.15629 62.7695 7.40802L66.7362 12.9281H63.6808L59.9464 7.69571H57.7308V12.9281H55.0506ZM57.6951 2.3195V5.46611H60.8577C61.4652 5.46611 61.9297 5.32227 62.2692 5.05256C62.6087 4.78285 62.7695 4.38727 62.7695 3.88382C62.7695 3.39834 62.6087 3.00277 62.2692 2.73306C61.9297 2.46335 61.4652 2.3195 60.8577 2.3195H57.6951Z" fill="black"/>
<path d="M78.1358 12.9281H75.5092V0H78.1358V12.9281Z" fill="black"/>
<path d="M91.0185 12.9281H88.374V0H91.0185V5.08852L95.7534 0H98.9875L93.5378 5.93361L99.9166 12.9281H96.5396L91.0185 6.9585V12.9281Z" fill="black"/>
<path d="M109.226 13H106.456L111.959 9.12075e-07H114.497L120 13H117.195L115.926 10.0152H110.494L109.226 13ZM113.21 3.32642L111.316 7.8036H115.068L113.21 3.32642Z" fill="black"/>
</svg>
